# Model by beeshroom, mtl by Merlijn (DutchM/merren2306)
mtllib plush_herobrine.mtl
o cube
v 0.6197315 0.6249999375 0.829609
v 0.6197315 0.2499999375 0.8296089375
v 0.734695375 0.625 0.472666
v 0.734695375 0.25 0.4726659375
v 0.37775237500000003 0.625 0.357702125
v 0.37775237500000003 0.25 0.35770206250000003
v 0.2627885 0.6249999375 0.714645125
v 0.2627885 0.25 0.7146450625
v 0.625 0.25 0.6874999374999999
v 0.625 -6.249999995322497e-08 0.6874999374999999
v 0.625 0.25 0.4999999375
v 0.625 0.0 0.4999999375
v 0.375 0.25 0.4999999375
v 0.375 0.0 0.4999999375
v 0.375 0.25 0.6874999374999999
v 0.375 -6.249999995322497e-08 0.6874999374999999
v 0.6229481875 0.125 0.5745238125
v 0.6229481875 0.0 0.5745238125
v 0.7186190625 0.125 0.34355393749999996
v 0.7186190625 0.0 0.34355393749999996
v 0.603134125 0.125 0.2957185
v 0.603134125 0.0 0.2957185
v 0.50746325 0.125 0.526688375
v 0.50746325 0.0 0.526688375
v 0.49253675 0.125 0.526688375
v 0.49253675 0.0 0.526688375
v 0.39686587500000003 0.125 0.2957185
v 0.39686587500000003 0.0 0.2957185
v 0.28138093750000004 0.125 0.34355393749999996
v 0.28138093750000004 0.0 0.34355393749999996
v 0.37705181249999997 0.125 0.5745238125
v 0.37705181249999997 0.0 0.5745238125
v 0.6974070625 0.273777625 0.6781249375
v 0.793077875 0.04280774999999998 0.6781249375
v 0.6974070625 0.273777625 0.5531249375
v 0.793077875 0.042807812499999986 0.5531249375
v 0.581922125 0.22594225 0.5531249375
v 0.6775929375 -0.00502762499999998 0.5531249375
v 0.581922125 0.2259421875 0.6781249375
v 0.6775929375 -0.00502762499999998 0.678124875
v 0.36656725 0.264952875 0.6781249375
v 0.414402625 0.14946793749999998 0.6781249375
v 0.36656725 0.264952875 0.5531249375
v 0.414402625 0.149468 0.5531249375
v 0.13559737500000002 0.1692820625 0.5531249375
v 0.1834328125 0.053797125 0.5531249375
v 0.13559737500000002 0.169282 0.6781249375
v 0.1834328125 0.053797125 0.6781249375
v 0.675204875 0.43125 0.4535053125
v 0.675204875 0.3546875 0.4535053125
v 0.679037 0.43125 0.44160725
v 0.679037 0.3546875 0.4416071875
v 0.6135974375 0.43125 0.42053050000000003
v 0.6135974375 0.3546875 0.42053050000000003
v 0.6097653125 0.43125 0.432428625
v 0.6097653125 0.3546875 0.4324285625
v 0.496733375 0.4375 0.396023375
v 0.496733375 0.3609375 0.396023375
v 0.5005655 0.4375 0.3841253125
v 0.5005655 0.3609375 0.3841253125
v 0.4351259375 0.4375 0.363048625
v 0.4351259375 0.3609375 0.3630485625
v 0.4312938125 0.4375 0.3749466875
v 0.4312938125 0.3609375 0.374946625
v 0.20937499999999998 0.24629649999999997 0.512802
v 0.20937499999999998 0.0903918125 0.57737975
v 0.20937499999999998 0.22835818749999998 0.469495125
v 0.20937499999999998 0.0724535 0.5340729375
v 0.16249999999999998 0.22835818749999998 0.469495125
v 0.16249999999999998 0.0724535 0.5340729375
v 0.16249999999999998 0.24629649999999997 0.512802
v 0.16249999999999998 0.0903918125 0.57737975
v 0.20937499999999998 0.18393462500000002 0.5386330625
v 0.16249999999999998 0.18393462500000002 0.5386330625
v 0.20937499999999998 0.16599631250000002 0.49532625
v 0.16249999999999998 0.16599631250000002 0.49532625
vt 0.750000 0.0
vt 0.750000 0.375
vt 0.375000 0.0
vt 0.375000 0.375
vt 0.375000 0.0
vt 0.375000 0.375
vt 0.750000 0.0
vt 0.750000 0.375
vt 0.562500 0.1875
vt 0.750000 0.1875
vt 0.562500 0.0
vt 0.187500 0.3125
vt 0.187500 0.375
vt 0.250000 0.3125
vt 0.250000 0.375
vt 0.812500 0.0
vt 0.812500 0.375
vt 1.000000 0.0
vt 1.000000 0.375
vt 0.000000 0.0
vt 0.000000 0.375
vt 0.187500 0.375
vt 0.187500 0.625
vt 0.375000 0.375
vt 0.375000 0.625
vt 0.125000 0.375
vt 0.125000 0.625
vt 0.312500 0.375
vt 0.312500 0.625
vt 0.000000 0.0
vt 0.000000 0.1875
vt 0.250000 0.0
vt 0.250000 0.1875
vt 0.000000 0.5625
vt 0.000000 0.625
vt 0.250000 0.5625
vt 0.250000 0.625
vt 0.250000 0.375
vt 0.250000 0.625
vt 0.500000 0.375
vt 0.500000 0.625
vt 0.000000 0.375
vt 0.000000 0.625
vt 0.250000 0.375
vt 0.250000 0.625
vt 0.625000 0.625
vt 0.500000 0.625
vt 0.625000 0.875
vt 0.500000 0.875
vt 0.500000 0.875
vt 0.625000 0.875
vt 0.500000 0.625
vt 0.625000 0.625
vt 0.625000 0.875
vt 0.625000 0.625
vt 0.500000 0.875
vt 0.500000 0.625
vt 0.500000 0.625
vt 0.500000 0.875
vt 0.625000 0.625
vt 0.625000 0.875
vt 0.500000 0.875
vt 0.625000 0.875
vt 0.500000 1.0
vt 0.625000 1.0
vt 0.625000 0.625
vt 0.500000 0.625
vt 0.625000 0.875
vt 0.500000 0.875
vt 0.500000 0.875
vt 0.625000 0.875
vt 0.500000 0.625
vt 0.625000 0.625
vt 0.625000 0.875
vt 0.625000 0.625
vt 0.500000 0.875
vt 0.500000 0.625
vt 0.500000 0.625
vt 0.500000 0.875
vt 0.625000 0.625
vt 0.625000 0.875
vt 0.500000 0.75
vt 0.625000 0.75
vt 0.625000 1.0
vt 0.500000 1.0
vt 0.687500 0.625
vt 0.687500 0.875
vt 0.812500 0.625
vt 0.812500 0.875
vt 0.687500 0.625
vt 0.687500 0.875
vt 0.812500 0.625
vt 0.812500 0.875
vt 0.687500 0.5625
vt 0.687500 0.6875
vt 0.812500 0.5625
vt 0.812500 0.6875
vt 0.812500 0.75
vt 0.687500 0.75
vt 0.687500 0.625
vt 0.687500 0.875
vt 0.812500 0.625
vt 0.812500 0.875
vt 0.687500 0.6875
vt 0.812500 0.6875
vt 0.687500 0.5625
vt 0.812500 0.5625
vt 0.812500 0.875
vt 0.812500 0.75
vt 0.687500 0.875
vt 0.687500 0.75
vt 0.687500 0.875
vt 0.812500 0.875
vt 0.687500 0.625
vt 0.812500 0.625
vt 0.687500 0.875
vt 0.812500 0.875
vt 0.687500 0.625
vt 0.812500 0.625
vt 0.812500 0.875
vt 0.687500 0.625
vt 0.812500 0.625
vt 0.937500 0.9375
vt 0.937500 1.0
vt 1.000000 0.9375
vt 1.000000 1.0
vt 0.937500 0.9375
vt 0.937500 1.0
vt 1.000000 0.9375
vt 1.000000 1.0
vt 0.125000 1.0
vt 0.000000 0.8125
vt 0.000000 1.0
vt 0.000000 0.875
vt -0.000000 1.0
vt 0.125000 0.875
vt 0.125000 1.0
vt 0.125000 0.8125
vt 0.000000 1.0
vt 0.125000 1.0
vt 0.125000 1.0
vt 0.000000 0.8125
vt 0.125000 0.8125
vt 0.000000 1.0
vt 0.125000 0.8125
vt -0.000000 0.8125
vt 0.125000 0.8125
vt -0.000000 0.8125
vt 0.937500 0.9375
vt 0.937500 1.0
vt 1.000000 0.9375
vt 1.000000 1.0
vt 0.937500 0.9375
vt 0.937500 1.0
vt 1.000000 0.9375
vt 1.000000 1.0
vt 0.937500 1.0
vt 1.000000 1.0
vt 0.937500 0.9375
vt 1.000000 0.9375
vt 1.000000 0.875
vt 0.875000 0.875
vt 0.875000 1.0
vt 0.937500 0.9375
vt 0.937500 1.0
vt 1.000000 0.9375
vt 1.000000 1.0
vt 0.937500 0.9375
vt 0.937500 1.0
vt 1.000000 0.9375
vt 1.000000 1.0
vt 0.937500 1.0
vt 1.000000 1.0
vt 0.937500 0.9375
vt 1.000000 0.9375
vt 0.875000 0.875
vt 0.875000 1.0
vt 1.000000 0.875
vt 1.000000 1.0
vt 0.125000 0.6875
vt 0.000000 0.8125
vt 0.000000 0.6875
vt 0.125000 0.6875
vt 0.000000 0.6875
vt 0.000000 0.6875
vt 0.000000 0.6875
vt 0.125000 0.8125
vt 0.125000 0.6875
vt 0.125000 0.6875
vn 0.9518 0.0000 0.3066
vn -0.9518 0.0000 -0.3066
vn 0.0000 1.0000 0.0000
vn -0.0000 -1.0000 -0.0000
vn -0.3066 -0.0000 0.9518
vn 0.3066 0.0000 -0.9518
vn 1.0000 0.0000 0.0000
vn -1.0000 -0.0000 0.0000
vn 0.0000 -0.0000 1.0000
vn 0.0000 0.0000 -1.0000
vn 0.9239 0.0000 0.3827
vn -0.9239 0.0000 -0.3827
vn -0.3827 -0.0000 0.9239
vn 0.3827 0.0000 -0.9239
vn 0.9239 0.0000 -0.3827
vn -0.9239 0.0000 0.3827
vn 0.3827 -0.0000 0.9239
vn -0.3827 0.0000 -0.9239
vn 0.9239 0.3827 0.0000
vn -0.9239 -0.3827 -0.0000
vn -0.3827 0.9239 0.0000
vn 0.3827 -0.9239 0.0000
vn -0.0000 -0.3827 -0.9239
vn 0.0000 -0.9239 0.3827
vn 0.0000 0.3827 0.9239
vn 0.0000 0.9239 -0.3827
usemtl normal
s 1
f 1/1/1 2/2/1 3/3/1
f 2/2/1 4/4/1 3/3/1
f 5/5/2 6/6/2 7/7/2
f 6/6/2 8/8/2 7/7/2
f 5/9/3 7/10/3 3/11/3
f 7/10/3 1/1/3 3/11/3
f 8/12/4 6/13/4 2/14/4
f 6/13/4 4/15/4 2/14/4
f 7/16/5 8/17/5 1/18/5
f 8/17/5 2/19/5 1/18/5
f 3/20/6 4/21/6 5/5/6
f 4/21/6 6/6/6 5/5/6
f 9/22/7 10/23/7 11/24/7
f 10/23/7 12/25/7 11/24/7
f 13/26/8 14/27/8 15/28/8
f 14/27/8 16/29/8 15/28/8
f 13/30/3 15/31/3 11/32/3
f 15/31/3 9/33/3 11/32/3
f 16/34/4 14/35/4 10/36/4
f 14/35/4 12/37/4 10/36/4
f 15/38/9 16/39/9 9/40/9
f 16/39/9 10/41/9 9/40/9
f 11/42/10 12/43/10 13/44/10
f 12/43/10 14/45/10 13/44/10
f 17/46/11 18/47/11 19/48/11
f 18/47/11 20/49/11 19/48/11
f 21/50/12 22/51/12 23/52/12
f 22/51/12 24/53/12 23/52/12
f 21/54/3 23/55/3 19/56/3
f 23/55/3 17/57/3 19/56/3
f 24/58/4 22/59/4 18/60/4
f 22/59/4 20/61/4 18/60/4
f 23/52/13 24/62/13 17/46/13
f 24/62/13 18/63/13 17/46/13
f 19/56/14 20/64/14 21/54/14
f 20/64/14 22/65/14 21/54/14
f 25/66/15 26/67/15 27/68/15
f 26/67/15 28/69/15 27/68/15
f 29/70/16 30/71/16 31/72/16
f 30/71/16 32/73/16 31/72/16
f 29/74/3 31/75/3 27/76/3
f 31/75/3 25/77/3 27/76/3
f 32/78/4 30/79/4 26/80/4
f 30/79/4 28/81/4 26/80/4
f 31/72/17 32/82/17 25/66/17
f 32/82/17 26/83/17 25/66/17
f 27/68/18 28/69/18 29/84/18
f 28/69/18 30/85/18 29/84/18
f 33/86/19 34/87/19 35/88/19
f 34/87/19 36/89/19 35/88/19
f 37/90/20 38/91/20 39/92/20
f 38/91/20 40/93/20 39/92/20
f 37/94/21 39/95/21 35/96/21
f 39/95/21 33/97/21 35/96/21
f 40/93/22 38/98/22 34/87/22
f 38/98/22 36/99/22 34/87/22
f 39/92/9 40/93/9 33/86/9
f 40/93/9 34/87/9 33/86/9
f 35/100/10 36/101/10 37/102/10
f 36/101/10 38/103/10 37/102/10
f 41/104/19 42/105/19 43/106/19
f 42/105/19 44/107/19 43/106/19
f 45/108/20 46/109/20 47/110/20
f 46/109/20 48/111/20 47/110/20
f 45/112/21 47/113/21 43/114/21
f 47/113/21 41/115/21 43/114/21
f 48/116/22 46/117/22 42/118/22
f 46/117/22 44/119/22 42/118/22
f 47/110/9 48/120/9 41/121/9
f 48/120/9 42/122/9 41/121/9
f 43/114/10 44/119/10 45/112/10
f 44/119/10 46/117/10 45/112/10
f 55/123/5 56/124/5 49/125/5
f 56/124/5 50/126/5 49/125/5
f 63/127/5 64/128/5 57/129/5
f 64/128/5 58/130/5 57/129/5
f 70/131/23 75/132/23 68/133/23
f 72/134/24 70/135/24 66/136/24
f 70/135/24 68/137/24 66/136/24
f 73/138/25 72/139/25 66/140/25
f 72/141/8 76/142/8 70/135/8
f 75/143/7 66/144/7 68/137/7
f 70/131/23 76/145/23 75/132/23
f 73/138/25 74/146/25 72/139/25
f 72/141/8 74/147/8 76/142/8
f 75/143/7 73/148/7 66/144/7
usemtl glow
f 49/149/1 50/150/1 51/151/1
f 50/150/1 52/152/1 51/151/1
f 53/153/2 54/154/2 55/155/2
f 54/154/2 56/156/2 55/155/2
f 53/153/3 55/157/3 51/151/3
f 55/157/3 49/158/3 51/151/3
f 56/159/4 54/154/4 50/160/4
f 54/154/4 52/152/4 50/160/4
f 51/161/6 52/152/6 53/162/6
f 52/152/6 54/163/6 53/162/6
f 57/164/1 58/165/1 59/166/1
f 58/165/1 60/167/1 59/166/1
f 61/168/2 62/169/2 63/170/2
f 62/169/2 64/171/2 63/170/2
f 61/168/3 63/172/3 59/166/3
f 63/172/3 57/173/3 59/166/3
f 64/174/4 62/169/4 58/175/4
f 62/169/4 60/167/4 58/175/4
f 59/176/6 60/177/6 61/178/6
f 60/177/6 62/179/6 61/178/6
f 67/180/7 73/148/7 75/143/7
f 71/181/26 67/180/26 69/182/26
f 71/183/8 76/142/8 74/147/8
f 73/138/25 71/184/25 74/146/25
f 76/145/23 67/185/23 75/132/23
f 67/180/7 65/186/7 73/148/7
f 71/181/26 65/187/26 67/180/26
f 71/183/8 69/182/8 76/142/8
f 73/138/25 65/188/25 71/184/25
f 76/145/23 69/189/23 67/185/23
